<svg width="52" height="52" viewBox="0 0 52 52" fill="none" xmlns="http://www.w3.org/2000/svg">
<rect width="52" height="52" rx="10" fill="#FFE1C7"/>
<path d="M26 14.1875C23.6637 14.1875 21.3799 14.8803 19.4373 16.1783C17.4948 17.4762 15.9807 19.3211 15.0867 21.4796C14.1926 23.638 13.9587 26.0131 14.4145 28.3045C14.8703 30.5959 15.9953 32.7007 17.6473 34.3527C19.2993 36.0047 21.4041 37.1297 23.6955 37.5855C25.9869 38.0413 28.362 37.8074 30.5205 36.9133C32.6789 36.0193 34.5238 34.5052 35.8217 32.5627C37.1197 30.6201 37.8125 28.3363 37.8125 26C37.809 22.8682 36.5634 19.8657 34.3489 17.6511C32.1343 15.4366 29.1318 14.191 26 14.1875ZM26 35.1875C24.1829 35.1875 22.4066 34.6487 20.8957 33.6391C19.3848 32.6296 18.2072 31.1947 17.5119 29.5159C16.8165 27.8371 16.6345 25.9898 16.989 24.2076C17.3435 22.4254 18.2186 20.7884 19.5035 19.5035C20.7884 18.2186 22.4254 17.3435 24.2076 16.989C25.9898 16.6345 27.8371 16.8165 29.5159 17.5119C31.1947 18.2072 32.6296 19.3848 33.6391 20.8957C34.6487 22.4066 35.1875 24.1829 35.1875 26C35.1849 28.4359 34.2161 30.7712 32.4937 32.4937C30.7712 34.2161 28.4359 35.1849 26 35.1875ZM24.6875 26.4375V20.75C24.6875 20.4019 24.8258 20.0681 25.0719 19.8219C25.3181 19.5758 25.6519 19.4375 26 19.4375C26.3481 19.4375 26.6819 19.5758 26.9281 19.8219C27.1742 20.0681 27.3125 20.4019 27.3125 20.75V26.4375C27.3125 26.7856 27.1742 27.1194 26.9281 27.3656C26.6819 27.6117 26.3481 27.75 26 27.75C25.6519 27.75 25.3181 27.6117 25.0719 27.3656C24.8258 27.1194 24.6875 26.7856 24.6875 26.4375ZM27.75 30.8125C27.75 31.1586 27.6474 31.497 27.4551 31.7847C27.2628 32.0725 26.9895 32.2968 26.6697 32.4293C26.3499 32.5617 25.9981 32.5964 25.6586 32.5289C25.3191 32.4614 25.0073 32.2947 24.7626 32.0499C24.5178 31.8052 24.3512 31.4934 24.2836 31.1539C24.2161 30.8144 24.2508 30.4626 24.3832 30.1428C24.5157 29.823 24.74 29.5497 25.0278 29.3574C25.3155 29.1651 25.6539 29.0625 26 29.0625C26.4641 29.0625 26.9093 29.2469 27.2374 29.5751C27.5656 29.9033 27.75 30.3484 27.75 30.8125Z" fill="#FF8D28"/>
</svg>
