<svg width="52" height="52" viewBox="0 0 52 52" fill="none" xmlns="http://www.w3.org/2000/svg">
<rect width="52" height="52" rx="10" fill="#CCFFD8"/>
<path d="M32.2857 21.7883C32.4308 21.9328 32.5458 22.1046 32.6243 22.2937C32.7029 22.4827 32.7433 22.6855 32.7433 22.8902C32.7433 23.0949 32.7029 23.2976 32.6243 23.4867C32.5458 23.6758 32.4308 23.8475 32.2857 23.992L25.0265 31.2513C24.882 31.3963 24.7102 31.5114 24.5212 31.5899C24.3321 31.6684 24.1294 31.7088 23.9246 31.7088C23.7199 31.7088 23.5172 31.6684 23.3281 31.5899C23.139 31.5114 22.9673 31.3963 22.8228 31.2513L19.7117 28.1402C19.567 27.9955 19.4522 27.8237 19.3739 27.6346C19.2956 27.4456 19.2553 27.243 19.2553 27.0383C19.2553 26.8337 19.2956 26.6311 19.3739 26.442C19.4522 26.253 19.567 26.0812 19.7117 25.9365C19.8564 25.7918 20.0281 25.677 20.2172 25.5987C20.4063 25.5204 20.6089 25.4801 20.8135 25.4801C21.0182 25.4801 21.2208 25.5204 21.4098 25.5987C21.5989 25.677 21.7707 25.7918 21.9154 25.9365L23.9259 27.9444L30.0846 21.7844C30.2294 21.6401 30.4011 21.5256 30.5901 21.4477C30.7791 21.3697 30.9816 21.3298 31.186 21.3302C31.3904 21.3305 31.5928 21.3712 31.7815 21.4498C31.9702 21.5284 32.1415 21.6434 32.2857 21.7883ZM40 26C40 28.7689 39.1789 31.4757 37.6406 33.778C36.1022 36.0803 33.9157 37.8747 31.3576 38.9343C28.7994 39.9939 25.9845 40.2712 23.2687 39.731C20.553 39.1908 18.0584 37.8574 16.1005 35.8995C14.1426 33.9416 12.8092 31.447 12.269 28.7313C11.7288 26.0155 12.0061 23.2006 13.0657 20.6424C14.1253 18.0843 15.9197 15.8978 18.222 14.3594C20.5243 12.8211 23.2311 12 26 12C29.7118 12.0041 33.2703 13.4804 35.895 16.1051C38.5196 18.7297 39.9959 22.2882 40 26ZM36.8889 26C36.8889 23.8464 36.2503 21.7411 35.0538 19.9505C33.8573 18.1598 32.1567 16.7641 30.167 15.94C28.1773 15.1158 25.9879 14.9002 23.8757 15.3203C21.7634 15.7405 19.8232 16.7776 18.3004 18.3004C16.7776 19.8232 15.7405 21.7634 15.3203 23.8757C14.9002 25.9879 15.1158 28.1773 15.94 30.167C16.7641 32.1567 18.1598 33.8573 19.9505 35.0538C21.7411 36.2503 23.8464 36.8889 26 36.8889C28.887 36.8858 31.6548 35.7376 33.6962 33.6962C35.7376 31.6548 36.8858 28.887 36.8889 26Z" fill="#34C759"/>
</svg>
