<svg width="52" height="52" viewBox="0 0 52 52" fill="none" xmlns="http://www.w3.org/2000/svg">
<rect width="52" height="52" rx="10" fill="#DAD7FF"/>
<path d="M26 12C23.2311 12 20.5243 12.8211 18.222 14.3594C15.9197 15.8978 14.1253 18.0843 13.0657 20.6424C12.0061 23.2006 11.7288 26.0155 12.269 28.7313C12.8092 31.447 14.1426 33.9416 16.1005 35.8995C18.0584 37.8574 20.553 39.1908 23.2687 39.731C25.9845 40.2712 28.7994 39.9939 31.3576 38.9343C33.9157 37.8747 36.1022 36.0803 37.6406 33.778C39.1789 31.4757 40 28.7689 40 26C39.9959 22.2882 38.5196 18.7297 35.8949 16.1051C33.2703 13.4804 29.7118 12.0041 26 12ZM26 36.8889C23.8464 36.8889 21.7411 36.2503 19.9505 35.0538C18.1598 33.8573 16.7641 32.1567 15.94 30.167C15.1158 28.1773 14.9002 25.9879 15.3203 23.8757C15.7405 21.7634 16.7776 19.8232 18.3004 18.3004C19.8232 16.7776 21.7634 15.7405 23.8757 15.3203C25.9879 14.9002 28.1773 15.1158 30.167 15.94C32.1567 16.7641 33.8573 18.1598 35.0538 19.9505C36.2503 21.7411 36.8889 23.8464 36.8889 26C36.8858 28.887 35.7376 31.6548 33.6962 33.6962C31.6548 35.7376 28.887 36.8858 26 36.8889ZM34.8148 26C34.8148 26.4126 34.6509 26.8082 34.3592 27.0999C34.0675 27.3917 33.6718 27.5556 33.2593 27.5556H26C25.5874 27.5556 25.1918 27.3917 24.9001 27.0999C24.6083 26.8082 24.4444 26.4126 24.4444 26V18.7407C24.4444 18.3282 24.6083 17.9325 24.9001 17.6408C25.1918 17.3491 25.5874 17.1852 26 17.1852C26.4126 17.1852 26.8082 17.3491 27.0999 17.6408C27.3917 17.9325 27.5556 18.3282 27.5556 18.7407V24.4444H33.2593C33.6718 24.4444 34.0675 24.6083 34.3592 24.9001C34.6509 25.1918 34.8148 25.5874 34.8148 26Z" fill="#6155F5"/>
</svg>
