<svg width="52" height="52" viewBox="0 0 52 52" fill="none" xmlns="http://www.w3.org/2000/svg">
<rect width="52" height="52" rx="10" fill="#D4EBFF"/>
<path d="M39.7135 18.8435L30.5972 9.78471C30.4142 9.60263 30.1659 9.50023 29.907 9.5H14.2791C13.6746 9.5 13.0949 9.7386 12.6675 10.1633C12.2401 10.588 12 11.1641 12 11.7647V40.2353C12 40.8359 12.2401 41.412 12.6675 41.8367C13.0949 42.2614 13.6746 42.5 14.2791 42.5H37.7209C38.3254 42.5 38.9051 42.2614 39.3325 41.8367C39.7599 41.412 40 40.8359 40 40.2353V19.5294C39.9998 19.2721 39.8967 19.0254 39.7135 18.8435ZM30.8837 12.8129L36.666 18.5588H30.8837V12.8129ZM37.7209 40.5588H14.2791C14.1927 40.5588 14.1099 40.5247 14.0488 40.4641C13.9878 40.4034 13.9535 40.3211 13.9535 40.2353V11.7647C13.9535 11.6789 13.9878 11.5966 14.0488 11.5359C14.1099 11.4753 14.1927 11.4412 14.2791 11.4412H28.9302V19.5294C28.9302 19.7868 29.0331 20.0337 29.2163 20.2157C29.3995 20.3977 29.6479 20.5 29.907 20.5H38.0465V40.2353C38.0465 40.3211 38.0122 40.4034 37.9512 40.4641C37.8901 40.5247 37.8073 40.5588 37.7209 40.5588ZM32.186 27.2941C32.186 27.5515 32.0831 27.7984 31.9 27.9804C31.7168 28.1624 31.4684 28.2647 31.2093 28.2647H20.7907C20.5316 28.2647 20.2832 28.1624 20.1 27.9804C19.9169 27.7984 19.814 27.5515 19.814 27.2941C19.814 27.0367 19.9169 26.7898 20.1 26.6078C20.2832 26.4258 20.5316 26.3235 20.7907 26.3235H31.2093C31.4684 26.3235 31.7168 26.4258 31.9 26.6078C32.0831 26.7898 32.186 27.0367 32.186 27.2941ZM32.186 32.4706C32.186 32.728 32.0831 32.9749 31.9 33.1569C31.7168 33.3389 31.4684 33.4412 31.2093 33.4412H20.7907C20.5316 33.4412 20.2832 33.3389 20.1 33.1569C19.9169 32.9749 19.814 32.728 19.814 32.4706C19.814 32.2132 19.9169 31.9663 20.1 31.7843C20.2832 31.6023 20.5316 31.5 20.7907 31.5H31.2093C31.4684 31.5 31.7168 31.6023 31.9 31.7843C32.0831 31.9663 32.186 32.2132 32.186 32.4706Z" fill="#0088FF"/>
</svg>
